<svg xmlns="http://www.w3.org/2000/svg" viewBox="0 0 1255.44 1775"><defs><style>.cls-1{fill:snow;}.cls-2{fill:#4484ce;}</style></defs><title>Asset 6</title><g id="Layer_2" data-name="Layer 2"><g id="Layer_6" data-name="Layer 6"><path class="cls-1" d="M488.2,1689.19a9.21,9.21,0,0,1,.24,1.79h0a16.13,16.13,0,0,0-.87-3.48c-20.87-55.55-58.63-132.34-125.92-214.89C229.34,1310.3,80.17,1204.68,27,1054.6-58,814.68,80.86,643.18,127,594.84A3.81,3.81,0,0,1,133.3,599C-68.95,1076,321,1296.14,484.09,1319.35a3.81,3.81,0,0,0,4.35-3.78V309c0-94.71,52.88-179.46,136.14-236.13.42-.3.85-.58,1.27-.87C692.45,27.05,778.27,0,871.94,0c211.8,0,383.5,138.34,383.5,309s-171.7,309-383.5,309a473.86,473.86,0,0,1-77.5-6.32q-21.16-3.49-41.44-8.84c-43.75-11.48-86.56,21.38-86.56,66.61V1691c0,46.21-22,84-48.87,84H537.31c-26.88,0-48.87-37.81-48.87-84"/><path class="cls-2" d="M763.44,442V177.49a32.65,32.65,0,0,1,.29-4.35A32.87,32.87,0,0,1,812.88,149L972.3,241l5,2.88.28.16L1042,281.2a32.74,32.74,0,0,1,16.3,31.91,32.59,32.59,0,0,1-16.3,25.18l-64.41,37.19-.28.16-5,2.88-159.42,92A33,33,0,0,1,763.44,442Z"/></g></g></svg>