<svg xmlns="http://www.w3.org/2000/svg" viewBox="0 0 167.69 199.92"><defs><style>.cls-1{fill:#4484ca;}.cls-2{fill:snow;}</style></defs><title>Asset 3</title><g id="Layer_2" data-name="Layer 2"><g id="Layer_6" data-name="Layer 6"><path class="cls-1" d="M31.85,144.84c-8.08-12.58-15-29.21-22.81-49.15C-19.24,23.64,22.45,2.05,83.69,0H84c61.24,2.05,102.93,23.64,74.65,95.69-33.36,85-64.19,101-72.57,103.85a6.85,6.85,0,0,1-4.47,0c-3.3-1.13-10.86-3.52-19.09-12.87C54,176.94,38.86,155.75,31.85,144.84Z"/><path class="cls-2" d="M139,43.55A45.17,45.17,0,0,0,119.42,26.1Q106.69,20,89.92,20H31.85V144.84c11.56,20.72,22.13,33.7,30.67,41.83V116.49H89.41q26.48,0,41.46-12.65t15-34.54A48.68,48.68,0,0,0,139,43.55ZM108.48,85.88q-6.39,5.73-18.56,5.73H62.52V44.83H90.64q11.34.21,17.79,7t6.44,17.71Q114.87,80.15,108.48,85.88Z"/></g></g></svg>