<svg xmlns="http://www.w3.org/2000/svg" viewBox="0 0 496.16 213.59"><defs><style>.cls-1{fill:#003ba2;}.cls-2{fill:#4484ca;}.cls-3{fill:snow;}</style></defs><title>Asset 1</title><g id="Layer_2" data-name="Layer 2"><g id="Layer_6" data-name="Layer 6"><path class="cls-1" d="M145.85,69.3A48.68,48.68,0,0,0,139,43.55"/><path class="cls-1" d="M130.87,103.84q15-12.63,15-34.54"/><path class="cls-2" d="M31.85,144.84c-8.08-12.58-15-29.21-22.81-49.15C-19.24,23.64,22.45,2.05,83.69,0H84c61.24,2.05,102.93,23.64,74.65,95.69-33.36,85-64.19,101-72.57,103.85a6.85,6.85,0,0,1-4.47,0c-3.3-1.13-10.86-3.52-19.09-12.87C54,176.94,38.86,155.75,31.85,144.84Z"/><path class="cls-1" d="M31.85,20V144.84"/><path class="cls-1" d="M139,43.55A45.17,45.17,0,0,0,119.42,26.1Q106.69,20,89.92,20H31.85"/><path class="cls-1" d="M89.41,116.49q26.48,0,41.46-12.65"/><path class="cls-1" d="M62.52,116.49H89.41"/><path class="cls-1" d="M62.52,186.67V116.49"/><path class="cls-3" d="M139,43.55A45.17,45.17,0,0,0,119.42,26.1Q106.69,20,89.92,20H31.85V144.84c11.56,20.72,22.13,33.7,30.67,41.83V116.49H89.41q26.48,0,41.46-12.65t15-34.54A48.68,48.68,0,0,0,139,43.55ZM108.48,85.88q-6.39,5.73-18.56,5.73H62.52V44.83H90.64q11.34.21,17.79,7t6.44,17.71Q114.87,80.15,108.48,85.88Z"/><path class="cls-3" d="M164.08,193.16H150.52v-71.8h13.56Z"/><path class="cls-3" d="M209.23,193.16a14.87,14.87,0,0,1-1.36-4.53,16.35,16.35,0,0,1-12.76,5.46,18,18,0,0,1-12.32-4.3A13.83,13.83,0,0,1,177.91,179q0-8,6-12.34t17.22-4.35h6.22v-2.9a8.33,8.33,0,0,0-1.8-5.61q-1.8-2.1-5.68-2.1a8,8,0,0,0-5.35,1.63,5.59,5.59,0,0,0-1.94,4.49H179a13.53,13.53,0,0,1,2.71-8.13,18,18,0,0,1,7.67-5.87,27.88,27.88,0,0,1,11.12-2.13q9.36,0,14.85,4.7t5.49,13.21v21.92q0,7.2,2,10.89v.8Zm-11.17-9.4a11.59,11.59,0,0,0,5.51-1.33,8.76,8.76,0,0,0,3.74-3.58v-8.69h-5.05q-10.14,0-10.8,7l0,.8a5.42,5.42,0,0,0,1.77,4.16A6.93,6.93,0,0,0,198.06,183.76Z"/><path class="cls-3" d="M253.28,174l9.35-31.46h14.49L256.79,201l-1.12,2.67q-4.54,9.9-15,9.91a21.37,21.37,0,0,1-6-.89V202.46l2.06,0a11.15,11.15,0,0,0,5.73-1.17,7.63,7.63,0,0,0,3-3.88l1.59-4.16-17.71-50.72h14.54Z"/><path class="cls-3" d="M301.66,193.16H288.1v-71.8h13.56Z"/><path class="cls-3" d="M317.05,129.49a6.64,6.64,0,0,1,2-5,8.75,8.75,0,0,1,11.06,0,7.15,7.15,0,0,1,0,10,8.67,8.67,0,0,1-11,0A6.62,6.62,0,0,1,317.05,129.49Zm14.35,63.67H317.84V142.58H331.4Z"/><path class="cls-3" d="M374.35,179.18a4.35,4.35,0,0,0-2.46-3.9,27.88,27.88,0,0,0-7.87-2.55Q346,169,346,157.4a13.9,13.9,0,0,1,5.59-11.24q5.58-4.51,14.61-4.52,9.63,0,15.4,4.54A14.29,14.29,0,0,1,387.35,158H373.84a6.56,6.56,0,0,0-1.87-4.79c-1.25-1.26-3.2-1.9-5.85-1.9a8.09,8.09,0,0,0-5.28,1.55,4.83,4.83,0,0,0-1.87,3.92,4.17,4.17,0,0,0,2.13,3.63,21.82,21.82,0,0,0,7.17,2.38,58.78,58.78,0,0,1,8.51,2.27q10.71,3.93,10.71,13.6a13.2,13.2,0,0,1-5.94,11.2q-5.94,4.27-15.33,4.27a26.74,26.74,0,0,1-11.29-2.26,19,19,0,0,1-7.74-6.22,14.44,14.44,0,0,1-2.8-8.53h12.8a7.05,7.05,0,0,0,2.67,5.51,10.55,10.55,0,0,0,6.64,1.92,9.78,9.78,0,0,0,5.86-1.47A4.57,4.57,0,0,0,374.35,179.18Z"/><path class="cls-3" d="M418.09,130.14v12.44h8.65v9.91h-8.65v25.24a6.07,6.07,0,0,0,1.07,4c.72.81,2.09,1.22,4.12,1.22a21.35,21.35,0,0,0,4-.33v10.24a27.79,27.79,0,0,1-8.18,1.21q-14.2,0-14.49-14.35V152.49h-7.39v-9.91h7.39V130.14Z"/><path class="cls-3" d="M467.11,167.13H455.44v26H440.79V122.07h26.42q12.6,0,19.43,5.61t6.84,15.87a21.84,21.84,0,0,1-3.15,12.13,21.45,21.45,0,0,1-9.55,7.74l15.38,29.06v.68H480.44Zm-11.67-11.86h11.82c3.68,0,6.52-.94,8.54-2.81a10,10,0,0,0,3-7.74,10.72,10.72,0,0,0-2.86-7.91q-2.85-2.88-8.76-2.88H455.44Z"/></g></g></svg>