<svg id="Layer_1" data-name="Layer 1" xmlns="http://www.w3.org/2000/svg" viewBox="0 0 143.62 69.09"><defs><style>.cls-1{fill:#212121;}.cls-2{fill:#fafafa;}</style></defs><title>logoplaylistr</title><path class="cls-1" d="M36.87,37.82a19.8,19.8,0,0,1,4.48.37c2,.61,6.11,3.65,6.11,7,0,3-6.25,7.45-8.43,7.86-.87.17-2.47.44-4.1.71-.66,2.36-1.25,4.42-1.42,4.82-.56,1.29-2.33,3.25-3.09,3.25S27.61,60.5,27.61,60c0-.27,1.7-1.58,2.05-2.6l.9-3h-.17c-.49,0-1.43-1.62-1.43-2a.38.38,0,0,1,.35-.43l2-.34,1.91-7c.31-1.14,1.7-3.13,2.08-3.13.7,0,3.06,1.35,3.06,1.78,0,.27-.87,1.56-1.18,2.47s-.87,2.9-1.5,5.16a20.63,20.63,0,0,0,2.16-.4c1.73-.41,5.79-3.48,5.79-6.35,0-1.11-2-2.7-2.88-2.93a17.82,17.82,0,0,0-3.85-.41,27.39,27.39,0,0,0-5,.37,4,4,0,0,0-2.19,2.94c0,.78,1.18,2.94,1.18,3.41S29.55,48.82,29,48.82s-3.23-3.07-3.23-4.25c0-1.86,4-5.64,6.59-6.38A22.62,22.62,0,0,1,36.87,37.82Z" transform="translate(-2.33 -15.91)"/><path class="cls-1" d="M51.24,61.79c-1.57,0-5-1.42-5-2.94,0-1.82,4-15.33,5.07-18.63.17-.51.45-.71.73-.71.66,0,3,1.25,3,1.82a3.51,3.51,0,0,1-.14.84c-.34,1.08-4.54,14.75-4.54,16.34,0,.44,1,1,1.28,1,1,0,2.92-2.6,4.62-5.64,0,0,.31-.61.76-.61s1.18.54,1.18.95a3.58,3.58,0,0,1-.45,1.18C55.82,58.71,53.73,61.79,51.24,61.79Z" transform="translate(-2.33 -15.91)"/><path class="cls-1" d="M74.1,53.21c.45,0,1.18.54,1.18.95a3.58,3.58,0,0,1-.45,1.18c-1.91,3.37-4,6.45-6.46,6.45-1.56,0-4.44-1.29-4.71-2.23,0,0-2.09,2.23-3.86,2.23-1.59,0-4.47-2.13-4.47-3.95,0-4.46,4.13-11.92,7.28-11.92a6.52,6.52,0,0,1,4.55,2c.9,0,3,.23,3,1.08,0,1.18-2.36,6.78-2.36,9.48a1.22,1.22,0,0,0,.94,1c1,0,2.92-2.6,4.62-5.64C73.34,53.82,73.65,53.21,74.1,53.21ZM63.9,48.62c-1.74,0-4.51,6.25-4.51,9.22a1.32,1.32,0,0,0,1.21,1.35c.7,0,2.43-1.19,3.4-3.14a27,27,0,0,0,1.77-6.45C65.77,49.06,64.45,48.62,63.9,48.62Z" transform="translate(-2.33 -15.91)"/><path class="cls-1" d="M84.68,58.81l-.21.71A16.05,16.05,0,0,0,90,53.82s.34-.61.76-.61,1.18.54,1.18.95a3.58,3.58,0,0,1-.45,1.18c-1.87,3.31-4.86,5-7.63,6.51a80.54,80.54,0,0,1-2.57,8.34c-.59,1.11-2.57,1.72-3.92,1.72-1.84,0-4.44-2.13-4.44-3.27,0-2.13,3.15-4.19,7-6.42.56-1.82,1-3.41,1-3.41-1.32,1.49-2.85,3-4.17,3-1.8,0-4.51-1.86-4.51-3.28,0-1.59,2.26-9.85,3.06-11.95.17-.47.45-.64.76-.64.66,0,2.95,1.18,2.95,1.79a3,3,0,0,1-.14.81c-.21.84-2.46,8.24-2.46,9.65a1.21,1.21,0,0,0,.93.95c1.39,0,3.47-3,3.92-4,1.08-2.47,2-7.12,2.43-8.51a.78.78,0,0,1,.77-.64c.65,0,2.94,1.18,2.94,1.79a6.24,6.24,0,0,1-.13.81C87,49.9,85.86,54.33,84.68,58.81Zm-5.52,5.81c-2.39,1.52-4.06,2.8-4.06,3.75a1,1,0,0,0,.9.91,2.57,2.57,0,0,0,2-1.15A36.51,36.51,0,0,0,79.16,64.62Z" transform="translate(-2.33 -15.91)"/><path class="cls-1" d="M93.77,61.79c-1.56,0-5-1.42-5-2.94,0-1.82,4-15.33,5.07-18.63.17-.51.45-.71.73-.71.66,0,3,1.25,3,1.82a4.07,4.07,0,0,1-.13.84c-.35,1.08-4.55,14.75-4.55,16.34,0,.44,1,1,1.28,1,1,0,2.92-2.6,4.62-5.64,0,0,.31-.61.76-.61s1.18.54,1.18.95a3.58,3.58,0,0,1-.45,1.18C98.35,58.71,96.26,61.79,93.77,61.79Z" transform="translate(-2.33 -15.91)"/><path class="cls-1" d="M100.63,46.63a1.13,1.13,0,0,1,1.15-.71c.42,0,2.77,1.22,2.77,1.86s-2.81,8.37-2.81,10.73a1.14,1.14,0,0,0,.91,1c1,0,2.88-2.6,4.65-5.64,0,0,.27-.61.72-.61s1.18.54,1.18.95a3.45,3.45,0,0,1-.48,1.18c-1.88,3.37-4,6.45-6.46,6.45-1.56,0-4.68-1.42-4.68-2.94S100,48.72,100.63,46.63ZM102.3,43c0-1.28.8-3.47,1.94-3.47.87,0,2.4.57,2.4,1.42,0,1.28-.84,3.47-2,3.47C103.83,44.4,102.3,43.83,102.3,43Z" transform="translate(-2.33 -15.91)"/><path class="cls-1" d="M121.28,53.82s.31-.61.76-.61,1.18.54,1.18.95a3.58,3.58,0,0,1-.45,1.18c-1.91,3.37-5.27,6.45-10.48,6.45-3.47,0-7.11-3.62-7.11-5.71,0-1.65,2.88-3,2.88-3s3.33-5,4.51-6.85a1.41,1.41,0,0,1,1.11-.78c.45,0,2.53,1.32,2.53,1.93,0,3.27,1.32,6.21,1.32,8.74a5.64,5.64,0,0,1-1.08,2.73C118,58.21,119.58,56.86,121.28,53.82ZM109.34,56c0,1.68,1.11,3.44,2,3.44a2.3,2.3,0,0,0,2.08-2.4c0-2.43-.8-5-.8-6.78C112.67,50.21,109.34,54.83,109.34,56Z" transform="translate(-2.33 -15.91)"/><path class="cls-1" d="M127.21,46.26h3c.21,0,.42.1.42.3,0,.44-.66,1.79-1.22,1.79h-2.77a84.11,84.11,0,0,0-2.43,9.22,2,2,0,0,0,1.94,1.89c1,0,2.92-2.6,4.62-5.64,0,0,.31-.61.76-.61s1.18.54,1.18.95a3.58,3.58,0,0,1-.45,1.18c-1.91,3.37-4,6.45-6.49,6.45-2.36,0-5.62-1.59-5.62-3.28a100.23,100.23,0,0,1,2.43-10.16h-1.18A.37.37,0,0,1,121,48c0-.4.62-1.75,1.18-1.75h1c.66-2.36,1.21-4.32,1.46-5.06.14-.48.45-.75.72-.75.7,0,3,1.29,3,1.89a3.44,3.44,0,0,1-.14.81Z" transform="translate(-2.33 -15.91)"/><path class="cls-1" d="M144,53.82s.31-.61.76-.61,1.18.54,1.18.95a3.58,3.58,0,0,1-.45,1.18c-1.91,3.37-4,6.45-6.45,6.45-1.56,0-4.34-1.29-4.34-2.6,0-2.64,1.84-7.46,1.84-9,0-.37-1.39-.64-1.39-.64s-1.21,2.77-2.91,5.81c0,0-.35.61-.77.61s-1.21-.54-1.21-.92a3.64,3.64,0,0,1,.49-1.21,55.48,55.48,0,0,0,2.49-5.27s-1.45-.87-1.45-2,1.45-3.78,2.32-3.78,2.78,1.08,2.78,1.85-.52,1.56-.52,2.44,4.4,1.18,4.4,2.59c0,1.12-2,7.29-2,9.22a.61.61,0,0,0,.62.61C140.43,59.46,142.3,56.86,144,53.82Z" transform="translate(-2.33 -15.91)"/><path d="M49.87,63.46A18.39,18.39,0,1,1,50,37.6H68.92a34.54,34.54,0,1,0-.06,25.86Z" transform="translate(-2.33 -15.91)"/><path class="cls-2" d="M24.62,67.18a5.39,5.39,0,0,0,1.59,1.08l-5.57,9.58a9.31,9.31,0,0,1-2.82-1.91Z" transform="translate(-2.33 -15.91)"/><path class="cls-2" d="M46.89,33.13a5.44,5.44,0,0,0-1.6-1.08l5.57-9.58a9.19,9.19,0,0,1,2.82,1.91Z" transform="translate(-2.33 -15.91)"/></svg>