<svg xmlns="http://www.w3.org/2000/svg" viewBox="0 0 379.73 142.6"><defs><style>.cls-1{fill:#212121;}</style></defs><title>Asset 2</title><g id="Layer_2" data-name="Layer 2"><g id="Layer_1-2" data-name="Layer 1"><path class="cls-1" d="M379.73,0V92.6h-16V47.75a17.68,17.68,0,0,1,4.3-.48,38.76,38.76,0,0,1,5.21.4l.2-13.92a15.27,15.27,0,0,0-4.51-.65,13,13,0,0,0-5.2,1V0Z"/><path class="cls-1" d="M362.41,0V34.78a15.38,15.38,0,0,0-5.54,5.78l-.4-6.45H346.41V0Z"/><path class="cls-1" d="M362.41,48.15V118.6h-16V88.25h10.86V52.82A8.73,8.73,0,0,1,362.41,48.15Z"/><path class="cls-1" d="M342.81,34.11V88.25h2.28V112.6h-16V89.14A29.22,29.22,0,0,0,335.31,88V77a23.43,23.43,0,0,1-4.26.35,11.49,11.49,0,0,1-2-.15V44.71h5.67V34.11h-5.67V0h16V34.11Z"/><polygon class="cls-1" points="327.77 0 327.77 34.11 325.5 34.11 325.5 20.79 311.77 20.79 311.77 0 327.77 0"/><path class="cls-1" d="M325.5,44.71h2.27v32.1a3,3,0,0,1-1.12-.77,6.43,6.43,0,0,1-1.15-4.3Z"/><path class="cls-1" d="M326.55,89.25c.41,0,.82,0,1.22,0V108.6h-16V79.46Q314.41,89.26,326.55,89.25Z"/><path class="cls-1" d="M303.13,34.11v10.6h7.32V142.6h-16V83.07a13.76,13.76,0,0,0,4.43-10.38,13.61,13.61,0,0,0-4.43-10.5V50.57h4.28a15.07,15.07,0,0,0-4.28-10.89V0h16V34.11Z"/><path class="cls-1" d="M284.82,73.29a4.89,4.89,0,0,1-2.13,4.12A9.75,9.75,0,0,1,277.13,79V67.17a21.62,21.62,0,0,1,5.06,1.94A4.67,4.67,0,0,1,284.82,73.29Z"/><path class="cls-1" d="M293.13,0V38.44l-.58-.48q-5.85-4.6-15.42-4.84V0Z"/><path class="cls-1" d="M284.27,50.57h8.86V61.1a22.69,22.69,0,0,0-5.71-3,63.46,63.46,0,0,0-9.11-2.42l-1.18-.25v-12a7.69,7.69,0,0,1,5.13,2A7,7,0,0,1,284.27,50.57Z"/><path class="cls-1" d="M292.52,84.67l.61-.46V85.6h-2C291.59,85.31,292.06,85,292.52,84.67Z"/><path class="cls-1" d="M275.81,0V33.1q-9.49.06-15.39,4.83l-.61.52V0Z"/><path class="cls-1" d="M270.35,45.06a8.46,8.46,0,0,1,5.46-1.64V55.14a18.09,18.09,0,0,1-5.18-2,4.47,4.47,0,0,1-2.28-3.88A5.24,5.24,0,0,1,270.35,45.06Z"/><path class="cls-1" d="M273.76,66.38c.72.15,1.4.3,2.05.46V76.6h-6.9A7.62,7.62,0,0,1,266.45,71h-6.64V60.69Q264.63,64.47,273.76,66.38Z"/><path class="cls-1" d="M258.49,39.73A14.44,14.44,0,0,0,254.44,50a12.75,12.75,0,0,0,4.05,9.56V71h-5.75a15.5,15.5,0,0,0,3,9.14,18.2,18.2,0,0,0,2.75,3.07V103.6h-16V88.25h1.09V34.11h-1.09v-8.9a7.08,7.08,0,0,0,1.94-5.12A7.05,7.05,0,0,0,242.49,15V0h16Z"/><path class="cls-1" d="M230.4,14.74a7.13,7.13,0,0,0-2.18,5.35,7.08,7.08,0,0,0,2.23,5.41,8.21,8.21,0,0,0,5.88,2.1,8.64,8.64,0,0,0,4.84-1.3v7.81h-12.1V88.25h12.1V107.6h-16V0h16V13.91a8.7,8.7,0,0,0-4.84-1.27A8.18,8.18,0,0,0,230.4,14.74Z"/><polygon class="cls-1" points="223.85 0 223.85 131.6 207.85 131.6 207.85 88.25 216.41 88.25 216.41 11.39 207.85 11.39 207.85 0 223.85 0"/><polygon class="cls-1" points="201.9 11.39 201.9 88.25 206.53 88.25 206.53 105.6 190.53 105.6 190.53 48.22 195.44 34.11 190.53 34.11 190.53 0 206.53 0 206.53 11.39 201.9 11.39"/><polygon class="cls-1" points="189.21 0 189.21 34.11 179.93 34.11 173.21 56.71 173.21 0 189.21 0"/><polygon class="cls-1" points="180.66 76.6 189.21 52.02 189.21 76.6 180.66 76.6"/><path class="cls-1" d="M158.39,97a7.83,7.83,0,0,1-2.51.93V67.25l7.39,21.15-1.7,4.45A8.27,8.27,0,0,1,158.39,97Z"/><polygon class="cls-1" points="171.88 0 171.88 61.19 169.92 67.78 159.87 34.11 155.88 34.11 155.88 0 171.88 0"/><path class="cls-1" d="M171.88,100.73V134.6h-16V110.11h.58Q167,110.12,171.88,100.73Z"/><path class="cls-1" d="M154.56,34.11H144.3l10.26,29.36V98.14a20.38,20.38,0,0,1-2.3.12l-2.2-.05V108.6h-11.5V88.25h2.94V87.4q-2.1-4-2.15-11.66V52.27a22.26,22.26,0,0,0-.79-6.11V0h16Z"/><path class="cls-1" d="M124.84,55.17h-3.6V44.74a5.58,5.58,0,0,1,1.67,1.33,8.88,8.88,0,0,1,1.93,6Z"/><path class="cls-1" d="M121.24,76.53V63.63h3.6v9.31A9.14,9.14,0,0,1,121.24,76.53Z"/><path class="cls-1" d="M137.24,0V42.84a15.65,15.65,0,0,0-3.77-4.71,21.72,21.72,0,0,0-12.23-4.84V0Z"/><path class="cls-1" d="M126.89,88.25h10.35V126h-16V86.85a17.1,17.1,0,0,0,4.2-3.45A16,16,0,0,0,126.89,88.25Z"/><path class="cls-1" d="M119.92,0V33.18c-.76-.06-1.54-.08-2.34-.08a29.9,29.9,0,0,0-11.91,2.28,18.89,18.89,0,0,0-1.75.85V0Z"/><path class="cls-1" d="M119.92,44.22v11h-1.74a38.28,38.28,0,0,0-14.26,2.38V50.37H109a6,6,0,0,1,2.07-4.81,8.68,8.68,0,0,1,5.73-1.75A10.42,10.42,0,0,1,119.92,44.22Z"/><path class="cls-1" d="M119.43,63.63h.49V77.2a12.59,12.59,0,0,1-5,1,7.35,7.35,0,0,1-5.2-1.75A5.79,5.79,0,0,1,107.82,72l.05-.85Q108.58,63.62,119.43,63.63Z"/><path class="cls-1" d="M111.78,89.25a18.94,18.94,0,0,0,8.14-1.7V116.6h-16V87.89A21.61,21.61,0,0,0,111.78,89.25Z"/><path class="cls-1" d="M97.47,41.66a14.5,14.5,0,0,0-2.91,8.71h8v7.77a19.06,19.06,0,0,0-2.86,1.69Q93.37,64.44,93.36,73a14.83,14.83,0,0,0,5.23,11.61,17.74,17.74,0,0,0,4,2.67V89.6h-16V0h16V37A17.53,17.53,0,0,0,97.47,41.66Z"/><polygon class="cls-1" points="85.28 0 85.28 126 69.28 126 69.28 88.25 83.6 88.25 83.6 11.39 69.28 11.39 69.28 0 85.28 0"/><path class="cls-1" d="M68,0V104.6H52V83.75a19.2,19.2,0,0,0,1.75-2q5.67-7.53,5.68-20v-.75q0-13-5.56-20.42A19.62,19.62,0,0,0,52,38.36V0Z"/><path class="cls-1" d="M34.64,77.59V44.87A8.68,8.68,0,0,1,42.25,49q2.67,4.1,2.67,11.66Q44.92,77.54,34.64,77.59Z"/><path class="cls-1" d="M50.64,0V37.16A18.89,18.89,0,0,0,38.27,33.1a19.45,19.45,0,0,0-3.63.33V0Z"/><path class="cls-1" d="M38.37,89.25A18.29,18.29,0,0,0,50.64,85v41h-16V88.93A21.4,21.4,0,0,0,38.37,89.25Z"/><path class="cls-1" d="M33.32,0V33.72a16.76,16.76,0,0,0-8.76,5.69l-.5-5.3H17.32V0Z"/><path class="cls-1" d="M33.32,44.9V77.54a9.3,9.3,0,0,1-8.21-5.3V50.07Q27.44,45.32,33.32,44.9Z"/><path class="cls-1" d="M33.32,88.63v30h-16v-9.53h7.79V83.54A16.22,16.22,0,0,0,33.32,88.63Z"/><polygon class="cls-1" points="16 0 16 34.11 10.65 34.11 10.65 90.6 0 90.6 0 0 16 0"/></g></g></svg>